<svg width="314" height="314" viewBox="0 0 314 314" fill="none" xmlns="http://www.w3.org/2000/svg">
<path d="M157 314C243.709 314 314 243.709 314 157C314 70.2913 243.709 0 157 0C70.2913 0 0 70.2913 0 157C0 243.709 70.2913 314 157 314Z" fill="#27292B"/>
<path d="M187.72 295.304C173.128 295.304 159.208 293.288 145.96 289.256C132.904 285.224 122.44 279.656 114.568 272.552C110.92 269.48 109.096 265.544 109.096 260.744C109.096 257.288 110.056 254.408 111.976 252.104C113.896 249.608 116.2 248.36 118.888 248.36C121.576 248.36 124.84 249.608 128.68 252.104C145.768 264.776 165.256 271.112 187.144 271.112C202.504 271.112 214.312 268.232 222.568 262.472C230.824 256.712 234.952 248.456 234.952 237.704C234.952 229.256 231.112 222.92 223.432 218.696C215.752 214.472 203.464 210.44 186.568 206.6C170.44 203.144 157.192 199.208 146.824 194.792C136.456 190.376 128.296 184.424 122.344 176.936C116.584 169.256 113.704 159.56 113.704 147.848C113.704 136.136 116.872 125.768 123.208 116.744C129.736 107.528 138.76 100.424 150.28 95.432C161.8 90.248 174.952 87.656 189.736 87.656C203.368 87.656 215.944 89.576 227.464 93.416C238.984 97.256 248.776 102.92 256.84 110.408C260.68 113.672 262.6 117.608 262.6 122.216C262.6 125.48 261.544 128.36 259.432 130.856C257.512 133.352 255.208 134.6 252.52 134.6C250.024 134.6 246.856 133.352 243.016 130.856C234.184 124.136 225.832 119.336 217.96 116.456C210.28 113.384 200.968 111.848 190.024 111.848C175.24 111.848 163.72 114.92 155.464 121.064C147.208 127.016 143.08 135.368 143.08 146.12C143.08 155.336 146.728 162.344 154.024 167.144C161.32 171.752 173.032 175.976 189.16 179.816C206.056 183.656 219.688 187.688 230.056 191.912C240.616 195.944 248.968 201.608 255.112 208.904C261.448 216.008 264.616 225.224 264.616 236.552C264.616 248.072 261.352 258.344 254.824 267.368C248.488 276.2 239.464 283.112 227.752 288.104C216.232 292.904 202.888 295.304 187.72 295.304Z" fill="white"/>
<path d="M231.752 196.72C232.712 199.024 233.192 200.944 233.192 202.48C233.192 206.128 231.656 209.2 228.584 211.696C225.704 214.192 222.44 215.44 218.792 215.44C216.296 215.44 213.896 214.768 211.592 213.424C209.48 211.888 207.848 209.776 206.696 207.088L187.688 163.888H82.28L63.272 207.088C62.12 209.776 60.392 211.888 58.088 213.424C55.784 214.768 53.384 215.44 50.888 215.44C47.048 215.44 43.592 214.192 40.52 211.696C37.64 209.2 36.2 206.128 36.2 202.48C36.2 200.944 36.68 199.024 37.64 196.72L118.856 19.0239C120.2 15.9519 122.312 13.5519 125.192 11.8239C128.264 10.0959 131.432 9.23193 134.696 9.23193C137.96 9.23193 141.032 10.0959 143.912 11.8239C146.984 13.5519 149.192 15.9519 150.536 19.0239L231.752 196.72ZM92.936 140.272H177.32L134.984 44.9439L92.936 140.272Z" fill="white"/>
</svg>
