<svg width="68" height="68" viewBox="0 0 68 68" fill="none" xmlns="http://www.w3.org/2000/svg">
<path d="M34 66C51.6731 66 66 51.6731 66 34C66 16.3269 51.6731 2 34 2C16.3269 2 2 16.3269 2 34C2 51.6731 16.3269 66 34 66Z" fill="#27292B" stroke="white" stroke-width="3"/>
<path d="M40.3147 58.6546C37.8703 58.6546 35.5085 58.2747 33.2293 57.5149C30.9831 56.7222 29.2158 55.6651 27.9276 54.3438C27.4982 53.9805 27.2834 53.5015 27.2834 52.9069C27.2834 52.5436 27.3825 52.2298 27.5807 51.9655C27.812 51.7013 28.0597 51.5691 28.324 51.5691C28.6543 51.5691 29.0342 51.7343 29.4636 52.0646C32.5686 54.6411 36.1856 55.9294 40.3147 55.9294C43.3206 55.9294 45.6329 55.3348 47.2514 54.1457C48.9031 52.9235 49.7289 51.2058 49.7289 48.9926C49.7289 47.7044 49.3325 46.6639 48.5397 45.8711C47.7469 45.0783 46.7394 44.4672 45.5173 44.0378C44.2951 43.5753 42.66 43.1129 40.612 42.6504C37.9033 42.0559 35.7067 41.4448 34.022 40.8171C32.3704 40.1895 30.9665 39.2481 29.8104 37.9929C28.6543 36.7046 28.0762 34.9869 28.0762 32.8399C28.0762 30.8909 28.5882 29.1733 29.6122 27.6868C30.6693 26.1673 32.1392 24.9947 34.022 24.1689C35.9049 23.3431 38.0685 22.9302 40.5129 22.9302C42.7921 22.9302 44.9392 23.31 46.9542 24.0698C48.9691 24.7965 50.6373 25.8535 51.9585 27.2409C52.388 27.6703 52.6027 28.1493 52.6027 28.6778C52.6027 29.0411 52.4871 29.3549 52.2558 29.6192C52.0576 29.8835 51.8264 30.0156 51.5622 30.0156C51.2318 30.0156 50.852 29.8504 50.4225 29.5201C48.6388 28.0667 47.0202 27.0592 45.5668 26.4977C44.1464 25.9361 42.4618 25.6553 40.5129 25.6553C37.573 25.6553 35.2773 26.2829 33.6256 27.5382C31.974 28.7934 31.1482 30.5441 31.1482 32.7903C31.1482 34.1446 31.5116 35.2512 32.2383 36.11C32.965 36.9359 33.9064 37.5965 35.0625 38.092C36.2517 38.5875 37.7712 39.0664 39.621 39.5289L40.9093 39.8262C43.5849 40.4868 45.6989 41.0979 47.2514 41.6595C48.804 42.221 50.1087 43.0964 51.1658 44.2855C52.2558 45.4417 52.8009 47.0107 52.8009 48.9926C52.8009 50.8755 52.2723 52.5601 51.2153 54.0466C50.1913 55.5 48.7214 56.6396 46.8055 57.4654C44.9227 58.2582 42.7591 58.6546 40.3147 58.6546Z" fill="white"/>
<path d="M45.5751 41.4832C45.6742 41.6814 45.7237 41.8796 45.7237 42.0778C45.7237 42.4411 45.5751 42.755 45.2778 43.0192C44.9805 43.2504 44.6336 43.3661 44.2373 43.3661C43.973 43.3661 43.7087 43.2835 43.4445 43.1183C43.2132 42.9531 43.0316 42.7219 42.8994 42.4246L39.1338 33.8032H19.909L16.0938 42.4246C15.7965 43.0522 15.334 43.3661 14.7064 43.3661C14.31 43.3661 13.9632 43.2504 13.6659 43.0192C13.4016 42.755 13.2695 42.4246 13.2695 42.0282C13.2695 41.797 13.3025 41.6153 13.3686 41.4832L20.6027 25.2313L27.8367 8.97947C28.134 8.25276 28.6791 7.8894 29.4718 7.8894C29.8352 7.8894 30.1655 7.9885 30.4628 8.18669C30.7931 8.38489 31.0243 8.64915 31.1565 8.97947L45.5751 41.4832ZM21.0486 31.1276H37.9446L29.5214 11.9524L21.0486 31.1276Z" fill="white"/>
</svg>
