<svg width="336" height="460" viewBox="0 0 336 460" fill="none" xmlns="http://www.w3.org/2000/svg">
<path d="M166.704 381.304C152.496 381.304 138.768 379.096 125.52 374.68C112.464 370.072 102.192 363.928 94.704 356.248C92.208 354.136 90.96 351.352 90.96 347.896C90.96 345.784 91.536 343.96 92.688 342.424C94.032 340.888 95.472 340.12 97.008 340.12C98.928 340.12 101.136 341.08 103.632 343C121.68 357.976 142.704 365.464 166.704 365.464C184.176 365.464 197.616 362.008 207.024 355.096C216.624 347.992 221.424 338.008 221.424 325.144C221.424 317.656 219.12 311.608 214.512 307C209.904 302.392 204.048 298.84 196.944 296.344C189.84 293.656 180.336 290.968 168.432 288.28C152.688 284.824 139.92 281.272 130.128 277.624C120.528 273.976 112.368 268.504 105.648 261.208C98.928 253.72 95.568 243.736 95.568 231.256C95.568 219.928 98.544 209.944 104.496 201.304C110.64 192.472 119.184 185.656 130.128 180.856C141.072 176.056 153.648 173.656 167.856 173.656C181.104 173.656 193.584 175.864 205.296 180.28C217.008 184.504 226.704 190.648 234.384 198.712C236.88 201.208 238.128 203.992 238.128 207.064C238.128 209.176 237.456 211 236.112 212.536C234.96 214.072 233.616 214.84 232.08 214.84C230.16 214.84 227.952 213.88 225.456 211.96C215.088 203.512 205.68 197.656 197.232 194.392C188.976 191.128 179.184 189.496 167.856 189.496C150.768 189.496 137.424 193.144 127.824 200.44C118.224 207.736 113.424 217.912 113.424 230.968C113.424 238.84 115.536 245.272 119.76 250.264C123.984 255.064 129.456 258.904 136.176 261.784C143.088 264.664 151.92 267.448 162.672 270.136L170.16 271.864C185.712 275.704 198 279.256 207.024 282.52C216.048 285.784 223.632 290.872 229.776 297.784C236.112 304.504 239.28 313.624 239.28 325.144C239.28 336.088 236.208 345.88 230.064 354.52C224.112 362.968 215.568 369.592 204.432 374.392C193.488 379 180.912 381.304 166.704 381.304Z" fill="white"/>
<path d="M197.28 281.496C197.856 282.648 198.144 283.8 198.144 284.952C198.144 287.064 197.28 288.888 195.552 290.424C193.824 291.768 191.808 292.44 189.504 292.44C187.968 292.44 186.432 291.96 184.896 291C183.552 290.04 182.496 288.696 181.728 286.968L159.84 236.856H48.096L25.92 286.968C24.192 290.616 21.504 292.44 17.856 292.44C15.552 292.44 13.536 291.768 11.808 290.424C10.272 288.888 9.504 286.968 9.504 284.664C9.504 283.32 9.696 282.264 10.08 281.496L94.176 92.5679C95.904 88.3439 99.072 86.2319 103.68 86.2319C105.792 86.2319 107.712 86.8079 109.44 87.9599C111.36 89.1119 112.704 90.6479 113.472 92.5679L197.28 281.496ZM54.72 221.304H152.928L103.968 109.848L54.72 221.304Z" fill="white"/>
</svg>
