<svg width="371" height="371" viewBox="0 0 371 371" fill="none" xmlns="http://www.w3.org/2000/svg">
<path d="M185.5 358C280.769 358 358 280.769 358 185.5C358 90.2309 280.769 13 185.5 13C90.2309 13 13 90.2309 13 185.5C13 280.769 90.2309 358 185.5 358Z" fill="#27292B" stroke="white" stroke-width="25"/>
<path d="M218.72 322.304C204.128 322.304 190.208 320.288 176.96 316.256C163.904 312.224 153.44 306.656 145.568 299.552C141.92 296.48 140.096 292.544 140.096 287.744C140.096 284.288 141.056 281.408 142.976 279.104C144.896 276.608 147.2 275.36 149.888 275.36C152.576 275.36 155.84 276.608 159.68 279.104C176.768 291.776 196.256 298.112 218.144 298.112C233.504 298.112 245.312 295.232 253.568 289.472C261.824 283.712 265.952 275.456 265.952 264.704C265.952 256.256 262.112 249.92 254.432 245.696C246.752 241.472 234.464 237.44 217.568 233.6C201.44 230.144 188.192 226.208 177.824 221.792C167.456 217.376 159.296 211.424 153.344 203.936C147.584 196.256 144.704 186.56 144.704 174.848C144.704 163.136 147.872 152.768 154.208 143.744C160.736 134.528 169.76 127.424 181.28 122.432C192.8 117.248 205.952 114.656 220.736 114.656C234.368 114.656 246.944 116.576 258.464 120.416C269.984 124.256 279.776 129.92 287.84 137.408C291.68 140.672 293.6 144.608 293.6 149.216C293.6 152.48 292.544 155.36 290.432 157.856C288.512 160.352 286.208 161.6 283.52 161.6C281.024 161.6 277.856 160.352 274.016 157.856C265.184 151.136 256.832 146.336 248.96 143.456C241.28 140.384 231.968 138.848 221.024 138.848C206.24 138.848 194.72 141.92 186.464 148.064C178.208 154.016 174.08 162.368 174.08 173.12C174.08 182.336 177.728 189.344 185.024 194.144C192.32 198.752 204.032 202.976 220.16 206.816C237.056 210.656 250.688 214.688 261.056 218.912C271.616 222.944 279.968 228.608 286.112 235.904C292.448 243.008 295.616 252.224 295.616 263.552C295.616 275.072 292.352 285.344 285.824 294.368C279.488 303.2 270.464 310.112 258.752 315.104C247.232 319.904 233.888 322.304 218.72 322.304Z" fill="white"/>
<path d="M262.752 223.72C263.712 226.024 264.192 227.944 264.192 229.48C264.192 233.128 262.656 236.2 259.584 238.696C256.704 241.192 253.44 242.44 249.792 242.44C247.296 242.44 244.896 241.768 242.592 240.424C240.48 238.888 238.848 236.776 237.696 234.088L218.688 190.888H113.28L94.272 234.088C93.12 236.776 91.392 238.888 89.088 240.424C86.784 241.768 84.384 242.44 81.888 242.44C78.048 242.44 74.592 241.192 71.52 238.696C68.64 236.2 67.2 233.128 67.2 229.48C67.2 227.944 67.68 226.024 68.64 223.72L149.856 46.0239C151.2 42.9519 153.312 40.5519 156.192 38.8239C159.264 37.0959 162.432 36.2319 165.696 36.2319C168.96 36.2319 172.032 37.0959 174.912 38.8239C177.984 40.5519 180.192 42.9519 181.536 46.0239L262.752 223.72ZM123.936 167.272H208.32L165.984 71.9439L123.936 167.272Z" fill="white"/>
</svg>
