<svg width="100" height="100" viewBox="0 0 100 100" fill="none" xmlns="http://www.w3.org/2000/svg">
<path fill-rule="evenodd" clip-rule="evenodd" d="M50.0901 0.374878C22.5306 0.374878 0.18264 23.0997 0.18264 51.1344C0.18264 73.5616 14.4826 92.5887 34.3124 99.3007C36.8066 99.7706 37.7223 98.1996 37.7223 96.8588C37.7223 95.6484 37.676 91.6498 37.6545 87.4083C23.7702 90.4789 20.8405 81.4193 20.8405 81.4193C18.5702 75.5521 15.2992 73.992 15.2992 73.992C10.7711 70.8415 15.6405 70.9062 15.6405 70.9062C20.6521 71.2635 23.2909 76.1371 23.2909 76.1371C27.7421 83.8973 34.9661 81.6538 37.814 80.3568C38.262 77.0769 39.5554 74.8359 40.9826 73.5692C29.8975 72.2856 18.2446 67.9332 18.2446 48.4832C18.2446 42.9413 20.1942 38.4132 23.3868 34.8584C22.8686 33.5791 21.1603 28.4171 23.8702 21.4253C23.8702 21.4253 28.0612 20.061 37.5983 26.6284C41.5793 25.5037 45.8488 24.9397 50.0901 24.9204C54.3314 24.9397 58.6041 25.5037 62.5926 26.6284C72.1182 20.061 76.3033 21.4253 76.3033 21.4253C79.0198 28.4171 77.3107 33.5791 76.7925 34.8584C79.9926 38.4132 81.9289 42.9413 81.9289 48.4832C81.9289 67.9794 70.2537 72.2722 59.1405 73.5288C60.9306 75.104 62.5256 78.1931 62.5256 82.9289C62.5256 89.7199 62.4678 95.1861 62.4678 96.8588C62.4678 98.2096 63.3661 99.7924 65.8959 99.294C85.7149 92.5745 99.9967 73.554 99.9967 51.1344C99.9967 23.0997 77.6521 0.374878 50.0901 0.374878Z" fill="white"/>
<path fill-rule="evenodd" clip-rule="evenodd" d="M19.0851 73.2548C18.9752 73.5078 18.5851 73.5826 18.2297 73.4095C17.8678 73.2439 17.6645 72.9001 17.7818 72.6471C17.8893 72.3873 18.2802 72.3159 18.6413 72.4882C19.0041 72.6546 19.2107 73.0018 19.0851 73.2548Z" fill="white"/>
<path fill-rule="evenodd" clip-rule="evenodd" d="M21.1066 75.5479C20.8686 75.7723 20.4033 75.6681 20.0876 75.3134C19.7612 74.9595 19.7 74.4862 19.9413 74.2584C20.1868 74.034 20.638 74.1391 20.9653 74.493C21.2917 74.851 21.3554 75.3209 21.1066 75.5479Z" fill="white"/>
<path fill-rule="evenodd" clip-rule="evenodd" d="M23.0744 78.4714C22.7686 78.6874 22.2686 78.4848 21.9595 78.0334C21.6537 77.5821 21.6537 77.0407 21.9661 76.8239C22.276 76.607 22.7686 76.802 23.0818 77.25C23.3868 77.7081 23.3868 78.2503 23.0744 78.4714Z" fill="white"/>
<path fill-rule="evenodd" clip-rule="evenodd" d="M25.7702 81.2957C25.4967 81.6025 24.914 81.5201 24.4876 81.1015C24.0512 80.6922 23.9297 80.1113 24.2041 79.8045C24.481 79.4969 25.0669 79.5835 25.4967 79.9987C25.9297 80.4072 26.062 80.9922 25.7702 81.2957Z" fill="white"/>
<path fill-rule="evenodd" clip-rule="evenodd" d="M29.4893 82.9356C29.3686 83.3332 28.8074 83.514 28.2421 83.345C27.6777 83.171 27.3083 82.7053 27.4223 82.3035C27.5397 81.9034 28.1033 81.7151 28.6727 81.8959C29.2364 82.069 29.6066 82.5313 29.4893 82.9356Z" fill="white"/>
<path fill-rule="evenodd" clip-rule="evenodd" d="M33.5735 83.2399C33.5876 83.6585 33.1083 84.0057 32.5149 84.0124C31.9182 84.0267 31.4355 83.688 31.4289 83.2761C31.4289 82.8533 31.8975 82.5095 32.4942 82.4994C33.0876 82.4876 33.5735 82.8239 33.5735 83.2399Z" fill="white"/>
<path fill-rule="evenodd" clip-rule="evenodd" d="M37.3744 82.5818C37.4454 82.9903 37.0331 83.4097 36.4438 83.5207C35.8645 83.6291 35.3281 83.3769 35.2545 82.9718C35.1826 82.5532 35.6025 82.1337 36.181 82.0253C36.7711 81.9211 37.2992 82.1665 37.3744 82.5818Z" fill="white"/>
</svg>
