<svg width="100" height="100" viewBox="0 0 100 100" fill="none" xmlns="http://www.w3.org/2000/svg">
<path fill-rule="evenodd" clip-rule="evenodd" d="M50 0C22.3858 0 0 22.3858 0 50C0 77.6142 22.3858 100 50 100C77.6142 100 100 77.6142 100 50C100 22.3858 77.6142 0 50 0ZM49.9248 54.2069L31.2473 40.649V69.2292H28.1269C26.3883 69.2292 25.0065 67.8473 25.0065 66.1087V34.5042C25.0065 34.3719 25.0146 34.2477 25.03 34.1315C25.0867 33.6356 25.2675 33.1504 25.586 32.721C26.6112 31.3392 28.6173 31.0271 30.0437 32.0523L49.9694 46.5398L70.0287 31.8742C71.4106 30.8487 73.3721 31.1608 74.3973 32.5873C74.9423 33.3219 75.1094 34.22 74.9321 35.0544V66.1533C74.9321 67.8473 73.5502 69.2292 71.8119 69.2292H68.6915V40.5808L49.9248 54.2069Z" fill="white"/>
</svg>
