<svg width="100" height="100" viewBox="0 0 100 100" fill="none" xmlns="http://www.w3.org/2000/svg">
<path fill-rule="evenodd" clip-rule="evenodd" d="M0 50C0 22.3858 22.3858 0 50 0C77.6142 0 100 22.3858 100 50C100 77.6142 77.6142 100 50 100C22.3858 100 0 77.6142 0 50ZM35.3344 41.4122H24.0034V75.4574H35.3344V41.4122ZM36.0808 30.8806C36.0072 27.5425 33.6201 25 29.7438 25C25.8675 25 23.3334 27.5425 23.3334 30.8806C23.3334 34.1496 25.7926 36.7653 29.5967 36.7653H29.6692C33.6201 36.7653 36.0808 34.1496 36.0808 30.8806ZM76.1987 55.9369C76.1987 45.4797 70.6088 40.6127 63.1524 40.6127C57.1363 40.6127 54.4428 43.9172 52.9389 46.2353V41.4131H41.6065C41.7558 44.6077 41.6065 75.4583 41.6065 75.4583H52.9389V56.4446C52.9389 55.4271 53.0125 54.4121 53.3121 53.6836C54.131 51.6509 55.9956 49.5463 59.126 49.5463C63.228 49.5463 64.8676 52.6682 64.8676 57.2432V75.4574H76.1983L76.1987 55.9369Z" fill="white"/>
</svg>
